<?xml version="1.0" standalone="no"?>
<!DOCTYPE svg PUBLIC "-//W3C//DTD SVG 20010904//EN"
 "http://www.w3.org/TR/2001/REC-SVG-20010904/DTD/svg10.dtd">
<svg version="1.0" xmlns="http://www.w3.org/2000/svg"
 width="640.000000pt" height="640.000000pt" viewBox="0 0 640.000000 640.000000"
 preserveAspectRatio="xMidYMid meet">
<metadata>
Created by potrace 1.11, written by Peter Selinger 2001-2013
</metadata>
<g transform="translate(0.000000,640.000000) scale(0.100000,-0.100000)"
fill="#000000" stroke="none">
<path d="M1560 4675 c-23 -25 -47 -35 -34 -14 3 6 -12 -1 -35 -15 -22 -14 -45
-26 -50 -26 -5 0 -110 -60 -232 -133 -123 -73 -282 -166 -352 -207 -186 -109
-307 -188 -307 -200 0 -6 17 2 38 19 44 35 396 241 411 241 6 0 11 4 11 9 0 8
53 34 65 32 3 -1 26 14 51 34 26 19 50 33 54 30 4 -3 10 2 14 10 3 8 11 15 18
15 9 0 8 -3 -2 -10 -8 -5 -11 -10 -7 -10 5 0 22 14 38 31 16 17 33 28 38 25 5
-3 12 1 15 10 3 8 10 13 16 9 5 -3 18 3 30 15 l20 20 0 -37 c0 -36 -39 -396
-43 -399 -1 0 -51 -27 -112 -59 -60 -32 -114 -61 -120 -65 -5 -4 -66 -36 -135
-73 -69 -36 -192 -102 -275 -146 -82 -45 -154 -83 -160 -85 -5 -2 -7 -6 -4
-10 7 -7 309 145 414 208 33 20 65 34 73 31 8 -3 10 0 6 7 -5 8 -2 9 10 5 11
-5 15 -3 10 5 -5 8 -2 9 10 5 11 -5 15 -3 10 5 -5 8 -2 9 10 5 11 -5 15 -3 10
5 -5 8 -2 9 10 5 11 -5 15 -3 10 5 -5 8 -2 9 10 5 11 -5 15 -3 10 5 -5 8 -2 9
10 5 10 -4 15 -3 11 3 -8 12 33 33 51 26 8 -3 13 -2 10 3 -6 10 24 25 32 16 3
-3 -1 -5 -8 -5 -7 0 -11 -2 -8 -5 3 -3 26 7 52 21 26 14 49 24 51 22 2 -2 1
-104 -3 -227 l-7 -223 -40 -16 c-22 -8 -150 -62 -285 -120 -386 -164 -481
-202 -492 -196 -37 23 40 -66 192 -220 98 -100 206 -212 241 -250 35 -37 73
-72 85 -76 12 -5 120 -34 240 -65 244 -63 404 -93 449 -85 17 3 134 -11 260
-32 l231 -37 96 -96 c53 -52 90 -95 82 -95 -30 0 -297 -278 -475 -495 -77 -93
-256 -334 -287 -386 -19 -31 -22 -55 -27 -195 l-5 -159 38 -55 c27 -41 44 -56
65 -58 15 -2 27 -9 27 -18 0 -11 17 -14 78 -13 49 0 70 3 57 8 -17 7 -13 10
25 21 33 9 108 11 290 6 135 -3 251 -7 258 -8 22 -3 -4 -19 -39 -25 -58 -9
-46 -13 42 -14 46 -1 109 -2 139 -4 182 -9 1423 -14 1410 -6 -8 5 -18 7 -22 5
-4 -3 -5 3 -2 13 6 16 4 15 -10 -2 -14 -16 -17 -16 -12 -3 3 9 0 19 -7 22 -18
7 682 -2 726 -10 21 -4 37 -12 37 -20 0 -11 20 -14 85 -14 47 0 85 4 85 9 0 5
12 11 27 13 19 2 37 18 67 63 l41 60 -3 160 -4 159 -44 68 c-24 38 -86 126
-137 196 -50 70 -104 146 -119 169 -27 41 -175 213 -326 380 -73 80 -130 120
-155 108 -14 -8 52 53 99 90 28 23 44 25 186 35 97 6 332 36 615 80 528 81
685 111 691 129 3 10 0 11 -18 1 -20 -11 -88 -9 -165 6 -11 2 -63 6 -115 9
-52 4 -151 13 -220 20 -153 18 -213 24 -370 39 -106 9 -124 14 -136 32 -12 18
-12 21 0 21 9 0 13 -3 11 -7 -2 -3 0 -12 4 -19 6 -9 11 -10 15 -2 4 6 3 11 -3
11 -6 0 -8 6 -5 14 3 8 0 17 -6 21 -7 4 -8 10 -4 14 5 3 6 40 3 81 l-5 75 -2
-67 c-3 -99 -12 -111 -33 -42 -10 32 -15 62 -12 68 4 6 -23 -21 -60 -60 -37
-39 -80 -77 -97 -84 -16 -7 -28 -15 -26 -19 2 -3 -6 -7 -17 -7 -12 -1 -42 -7
-67 -14 -26 -7 -75 -10 -118 -7 -51 4 -70 2 -65 -5 4 -8 0 -9 -11 -5 -9 4 -15
3 -12 -2 6 -9 -22 -26 -36 -23 -5 1 -8 -3 -8 -9 0 -5 -4 -8 -8 -5 -5 3 -16 -8
-26 -25 -25 -42 -38 -26 -36 45 1 33 1 66 0 71 -1 6 -2 13 -1 17 0 4 -13 15
-31 24 -17 9 -72 57 -122 107 -50 50 -95 90 -99 89 -5 -2 -6 1 -3 6 3 5 -8 30
-25 56 -194 308 -241 728 -110 1006 19 41 35 82 35 92 1 9 5 20 9 24 4 5 5 0
1 -11 -3 -12 8 -4 27 18 19 21 50 52 69 69 32 27 32 28 4 9 -17 -11 -36 -26
-42 -34 -13 -15 -51 -15 -74 -1 -7 5 -24 7 -37 5 -17 -2 -21 1 -16 11 3 7 -1
4 -9 -6 -14 -17 -16 -17 -16 -3 0 11 -5 14 -17 10 -12 -5 -14 -3 -8 7 5 8 4
11 -3 6 -6 -4 -9 -14 -6 -24 5 -14 4 -15 -5 -2 -9 12 -11 12 -16 -2 -6 -14
-35 -34 -35 -24 0 8 58 66 90 89 52 37 149 75 221 85 57 9 59 10 21 11 -23 0
-58 7 -76 15 -19 8 -62 14 -96 14 -34 0 -65 4 -69 9 -7 12 -214 31 -299 28
-34 -2 -68 -8 -76 -14 -19 -16 -172 -71 -196 -71 -11 0 -20 -4 -20 -10 0 -5 7
-10 16 -10 9 0 40 -7 70 -16 41 -12 58 -23 74 -49 20 -32 20 -45 19 -357 -2
-322 -14 -697 -24 -773 -3 -22 -16 -52 -28 -67 l-22 -27 -160 50 c-88 28 -218
69 -290 91 -214 66 -271 86 -250 87 22 1 239 -65 553 -169 68 -23 131 -39 140
-37 21 5 22 5 -128 50 -261 80 -1158 362 -1327 418 -100 33 -188 57 -195 53
-7 -4 -10 -4 -6 1 4 4 0 21 -9 39 -14 27 -15 63 -9 291 4 143 11 296 16 340 4
44 14 138 21 209 8 77 18 133 26 140 38 34 46 37 76 32 30 -5 30 -5 -5 7 -20
7 -40 15 -44 20 -12 11 -19 9 -44 -18z m-44 -127 c-4 -57 -13 -175 -21 -263
-7 -88 -11 -202 -8 -252 3 -52 2 -93 -3 -93 -5 0 -7 -27 -6 -59 2 -33 -1 -91
-7 -128 -10 -65 -9 -70 15 -106 14 -22 24 -41 22 -43 -13 -12 -121 -53 -129
-49 -5 3 -21 26 -35 51 -27 45 -27 47 -19 172 4 70 10 172 12 227 6 135 40
513 50 549 6 21 24 37 68 61 33 19 62 34 64 34 2 1 0 -45 -3 -101z m2294 -332
c0 -3 -4 -8 -10 -11 -5 -3 -10 -1 -10 4 0 6 5 11 10 11 6 0 10 -2 10 -4z
m-167 -338 c3 -7 3 -62 0 -123 -5 -99 5 -198 32 -340 9 -46 -5 -58 -70 -57
-32 0 -67 -5 -78 -11 -15 -9 -21 -9 -24 1 -9 23 -23 1 -17 -26 4 -21 3 -24 -5
-12 -25 36 -45 167 -46 302 l0 138 28 26 c15 14 25 29 22 35 -4 5 4 5 19 -1
22 -8 26 -7 26 9 0 19 42 37 60 26 5 -3 11 -1 15 5 3 5 -2 10 -11 10 -14 0
-15 3 -6 12 8 8 15 8 27 -2 13 -11 14 -10 9 4 -3 9 -2 16 4 16 6 0 12 -6 15
-12z m-2196 -364 c-3 -3 -12 -4 -19 -1 -8 3 -5 6 6 6 11 1 17 -2 13 -5z m730
-110 c-3 -3 -12 -4 -19 -1 -8 3 -5 6 6 6 11 1 17 -2 13 -5z m33 -14 c0 -5 -2
-10 -4 -10 -3 0 -8 5 -11 10 -3 6 -1 10 4 10 6 0 11 -4 11 -10z m99 -26 c2 -2
1 -7 -2 -11 -4 -4 -13 -1 -19 5 -7 7 -22 12 -34 12 -13 0 -25 4 -28 9 -6 9 74
-5 83 -15z m58 -19 c19 -8 43 -15 52 -15 9 0 25 -8 36 -17 l20 -16 -20 8 c-11
4 -24 8 -30 9 -72 18 -105 30 -105 37 0 12 5 11 47 -6z m1153 -147 c12 -35 40
-98 61 -140 22 -43 39 -79 39 -81 0 -2 -7 -4 -16 -4 -21 0 -47 40 -95 142 -37
79 -39 88 -27 115 7 17 13 30 14 30 1 0 12 -28 24 -62z m-970 -28 c13 -9 13
-10 0 -10 -8 0 -22 5 -30 10 -13 9 -13 10 0 10 8 0 22 -5 30 -10z m80 -25 c19
-7 28 -13 20 -13 -8 0 -31 6 -50 13 -19 7 -28 13 -20 13 8 0 31 -6 50 -13z
m-78 -197 c-13 -16 -10 -69 3 -65 6 2 12 12 13 22 3 10 0 15 -7 11 -20 -13
-11 11 11 30 17 14 19 15 10 2 -10 -12 -11 -22 -4 -34 8 -14 2 -25 -28 -55
-24 -24 -34 -41 -29 -48 6 -8 5 -8 -3 -1 -7 6 -18 5 -31 -1 -14 -8 -18 -8 -13
0 10 15 -7 14 -22 -1 -9 -9 -12 -9 -12 0 0 6 7 15 15 20 11 5 5 8 -20 8 -19 0
-35 -4 -35 -9 0 -5 -7 -4 -15 3 -8 7 -15 20 -15 30 0 25 -11 32 -28 17 -10 -7
-13 -8 -9 -1 4 7 -3 14 -18 16 -14 3 -25 1 -25 -4 0 -5 -4 -6 -10 -3 -29 18
17 37 145 60 96 18 141 19 127 3z m18 -102 c0 -2 -8 -10 -17 -17 -16 -13 -17
-12 -4 4 13 16 21 21 21 13z m2223 -173 c-7 -2 -21 -2 -30 0 -10 3 -4 5 12 5
17 0 24 -2 18 -5z m90 -10 c-13 -2 -35 -2 -50 0 -16 2 -5 4 22 4 28 0 40 -2
28 -4z m100 -10 c-13 -2 -33 -2 -45 0 -13 2 -3 4 22 4 25 0 35 -2 23 -4z m80
-10 c-7 -2 -21 -2 -30 0 -10 3 -4 5 12 5 17 0 24 -2 18 -5z m-728 -34 c-22
-10 -47 -18 -55 -18 -8 0 5 9 30 19 58 24 77 24 25 -1z m-350 1 c3 -6 -1 -7
-9 -4 -18 7 -21 14 -7 14 6 0 13 -4 16 -10z m51 -18 c-10 -2 -22 0 -28 6 -6 6
0 7 19 4 21 -5 23 -7 9 -10z m202 -14 c-13 -3 -48 -6 -78 -6 -30 0 -65 3 -78
6 -13 4 22 7 78 7 56 0 91 -3 78 -7z m-102 -320 c-28 -48 -34 -52 -56 -38 -13
8 -12 11 5 24 11 7 31 23 45 35 34 28 35 27 6 -21z m-1591 -109 c-169 -16
-278 -30 -355 -45 -23 -4 -23 -4 -4 5 30 13 213 41 335 50 197 15 214 9 24
-10z m1795 -59 l25 -8 -25 0 c-14 0 -34 3 -45 8 l-20 9 20 -1 c11 0 31 -4 45
-8z m184 -516 c3 -8 2 -12 -4 -9 -6 3 -10 10 -10 16 0 14 7 11 14 -7z m-2122
-83 c-8 -4 -14 -12 -15 -17 -1 -5 -6 -8 -10 -6 -4 1 -5 -25 -2 -59 5 -42 3
-64 -5 -69 -8 -5 -7 -9 5 -13 11 -5 14 -3 9 6 -6 8 -3 8 9 -1 13 -11 14 -17 4
-27 -6 -7 -19 -10 -27 -8 -8 2 -4 -2 9 -10 29 -17 8 -30 -24 -15 -19 9 -19 9
-1 -6 10 -9 23 -13 27 -10 5 3 9 -1 10 -8 0 -7 2 -21 4 -30 2 -10 0 -18 -5
-18 -4 0 -11 -7 -14 -16 -5 -13 1 -15 28 -13 19 2 38 0 42 -4 4 -4 -13 -7 -37
-7 -24 0 -199 -2 -389 -5 -232 -4 -338 -2 -322 4 12 6 22 13 22 16 0 4 -4 3
-10 0 -14 -9 -12 19 2 33 9 9 8 12 -4 12 -15 0 -15 3 -3 27 9 17 11 32 5 43
-5 10 -6 20 -2 24 12 13 11 80 -1 88 -9 6 -9 8 2 8 9 0 11 8 7 24 -7 28 -6 28
129 46 137 18 581 27 557 11z m1557 -237 l1 -111 -26 5 c-20 4 -24 9 -20 24 3
13 -4 28 -22 45 -15 13 -21 21 -13 17 11 -5 13 -3 8 10 -4 11 -3 15 4 11 6 -4
8 -13 5 -20 -2 -7 1 -16 8 -18 10 -4 13 4 12 26 -1 17 -7 32 -14 35 -15 5 -16
32 -1 32 5 0 7 -4 4 -10 -3 -5 -1 -10 5 -10 6 0 10 8 8 17 -2 10 -12 18 -22
18 -11 0 -21 7 -23 15 -4 12 -3 13 5 1 16 -23 33 -4 22 25 -14 36 -12 49 10
75 l19 24 1 -58 c0 -32 -4 -56 -8 -53 -5 3 -9 -1 -9 -9 0 -8 3 -12 7 -10 3 2
7 -13 8 -33 5 -72 10 -42 11 60 0 56 1 112 2 123 4 38 17 -121 18 -231z m611
222 c0 -9 19 -15 53 -19 83 -9 193 -30 180 -34 -7 -3 -13 -11 -13 -19 0 -9 -3
-13 -7 -11 -5 3 -8 -21 -8 -54 0 -32 2 -59 6 -59 3 0 5 -10 6 -22 0 -13 4 -32
8 -42 5 -11 5 -17 -1 -14 -5 4 -9 -7 -9 -22 -1 -16 3 -28 8 -27 5 1 13 -7 17
-19 8 -20 6 -21 -103 -17 -62 2 -118 6 -124 8 -9 3 -13 36 -14 117 0 62 -3
145 -7 185 -4 39 -4 69 0 67 4 -3 8 -11 8 -18z m-670 -1 c0 -8 -2 -15 -4 -15
-2 0 -6 7 -10 15 -3 8 -1 15 4 15 6 0 10 -7 10 -15z m25 5 c3 -5 1 -10 -4 -10
-6 0 -11 5 -11 10 0 6 2 10 4 10 3 0 8 -4 11 -10z m-1515 -50 c0 -5 -2 -10 -4
-10 -3 0 -8 5 -11 10 -3 6 -1 10 4 10 6 0 11 -4 11 -10z m1469 -153 c0 -9 -2
-8 -6 1 -2 6 -10 9 -15 6 -7 -4 -8 -2 -4 5 9 13 26 5 25 -12z m21 -108 c0 -10
-7 -19 -15 -19 -15 0 -21 31 -9 43 11 10 24 -3 24 -24z m-1603 -35 c-3 -3
-147 -7 -319 -9 -172 -2 -293 0 -268 4 53 9 596 14 587 5z m1679 -27 c-9 16
45 14 56 -2 5 -6 8 -6 8 3 0 16 357 17 392 1 14 -6 28 -25 35 -47 6 -20 15
-45 19 -56 7 -18 -1 -18 -212 -11 -120 5 -245 8 -276 9 -55 0 -57 1 -52 23 4
14 2 23 -5 23 -6 0 -11 -9 -11 -19 0 -11 -4 -23 -10 -26 -18 -11 -10 25 10 45
11 11 19 23 19 28 -1 4 -1 15 0 26 1 16 3 17 18 5 11 -9 14 -10 9 -2z m784 -7
c45 -6 32 -8 -68 -8 -67 0 -125 4 -128 9 -6 11 119 10 196 -1z"/>
<path d="M1472 3970 c0 -14 2 -19 5 -12 2 6 2 18 0 25 -3 6 -5 1 -5 -13z"/>
<path d="M1463 3835 c0 -22 2 -30 4 -17 2 12 2 30 0 40 -3 9 -5 -1 -4 -23z"/>
<path d="M3580 3000 c0 -5 5 -10 11 -10 5 0 7 5 4 10 -3 6 -8 10 -11 10 -2 0
-4 -4 -4 -10z"/>
<path d="M2520 2865 c0 -13 -11 -19 -31 -17 -3 1 -6 -5 -6 -13 0 -11 5 -10 24
2 20 13 33 43 18 43 -3 0 -5 -7 -5 -15z"/>
<path d="M2358 1483 c7 -3 16 -2 19 1 4 3 -2 6 -13 5 -11 0 -14 -3 -6 -6z"/>
<path d="M2350 1234 c0 -8 5 -12 10 -9 6 4 8 11 5 16 -9 14 -15 11 -15 -7z"/>
<path d="M3904 1414 c-4 -14 -3 -29 2 -34 5 -5 9 6 10 26 1 41 -3 43 -12 8z"/>
<path d="M3926 1237 c3 -10 9 -15 12 -12 3 3 0 11 -7 18 -10 9 -11 8 -5 -6z"/>
<path d="M3881 1174 c0 -11 3 -14 6 -6 3 7 2 16 -1 19 -3 4 -6 -2 -5 -13z"/>
<path d="M3955 1060 c-3 -6 1 -7 9 -4 18 7 21 14 7 14 -6 0 -13 -4 -16 -10z"/>
<path d="M3965 1040 c-3 -5 -1 -10 4 -10 6 0 11 5 11 10 0 6 -2 10 -4 10 -3 0
-8 -4 -11 -10z"/>
<path d="M1708 4653 c6 -2 18 -2 25 0 6 3 1 5 -13 5 -14 0 -19 -2 -12 -5z"/>
<path d="M1617 4607 c-24 -21 -26 -28 -41 -222 -14 -178 -28 -389 -40 -585 -7
-109 1 -116 212 -190 360 -125 662 -224 897 -295 50 -14 164 -51 255 -80 258
-84 298 -95 309 -81 16 20 19 80 37 808 5 196 4 265 -6 288 -7 16 -14 30 -16
30 -2 0 -156 38 -342 85 -325 81 -543 128 -1002 215 -118 22 -220 42 -226 45
-6 2 -22 -7 -37 -18z m661 -426 c28 -6 42 -5 42 2 0 6 6 3 13 -7 10 -14 31
-21 79 -25 4 -1 5 -7 2 -15 -3 -8 4 -16 18 -19 24 -6 40 -19 95 -78 18 -19 39
-40 48 -47 8 -7 13 -17 10 -22 -6 -10 33 -25 42 -16 4 3 0 6 -8 6 -10 0 -11 2
-2 8 7 4 17 32 22 62 8 44 9 30 5 -75 -8 -229 -16 -365 -23 -365 -3 0 -4 32
-3 71 3 52 0 74 -10 80 -10 7 -10 9 0 9 9 0 10 5 2 19 -5 11 -10 29 -10 40 0
12 -7 21 -15 21 -8 0 -15 -4 -15 -10 0 -5 5 -10 12 -10 6 0 2 -9 -10 -20 -12
-12 -22 -29 -22 -40 0 -10 -6 -25 -12 -32 -7 -7 -13 -19 -14 -25 -2 -32 -5
-35 -24 -30 -21 5 -29 -8 -8 -15 7 -3 4 -12 -10 -26 -13 -13 -27 -20 -32 -17
-5 3 -11 1 -14 -3 -10 -17 -146 2 -192 26 -45 25 -108 74 -128 100 -30 40 -48
156 -40 257 4 50 7 93 6 97 -1 4 6 5 16 1 14 -5 15 -3 5 8 -19 19 -16 26 10
25 28 -3 47 11 40 30 -3 8 1 14 11 14 9 0 16 4 16 9 0 8 9 12 50 19 3 1 24 -3
48 -7z m545 -71 c14 -11 60 -28 104 -38 43 -10 77 -21 76 -25 -4 -10 35 -47
49 -47 6 0 8 -3 5 -7 -4 -3 0 -18 9 -31 14 -22 16 -51 10 -226 -3 -111 -7
-210 -9 -221 -11 -66 -31 -125 -42 -125 -7 0 -16 -7 -19 -16 -5 -13 -9 -14
-21 -4 -12 10 -15 9 -16 -6 0 -18 -1 -18 -9 1 -5 11 -9 14 -9 6 -1 -10 -13
-12 -53 -8 -72 7 -110 16 -125 29 -7 6 -28 18 -46 28 -57 30 -59 42 -53 285 5
220 19 372 37 389 8 9 60 31 80 35 4 0 18 -8 32 -19z m-22 -780 c34 -10 67
-16 72 -13 6 3 7 2 4 -4 -4 -6 12 -16 36 -23 23 -7 37 -14 32 -17 -6 -2 -60
15 -120 36 -116 42 -130 54 -24 21z m194 -70 c13 -6 15 -9 5 -9 -8 0 -22 4
-30 9 -18 12 -2 12 25 0z m80 -25 c39 -17 21 -18 -25 0 -19 7 -28 14 -20 14 8
0 29 -6 45 -14z"/>
<path d="M3089 4525 c-105 -17 -193 -39 -251 -64 l-43 -18 45 -12 c25 -7 71
-19 103 -28 53 -15 65 -15 135 0 42 9 98 19 123 22 57 7 142 58 137 83 -6 32
-106 39 -249 17z"/>
<path d="M3880 4460 c8 -5 20 -10 25 -10 6 0 3 5 -5 10 -8 5 -19 10 -25 10 -5
0 -3 -5 5 -10z"/>
<path d="M4004 4404 c48 -25 90 -43 92 -41 5 5 -158 87 -171 86 -6 0 30 -20
79 -45z"/>
<path d="M4100 4260 c0 -5 -13 -7 -29 -4 -37 8 -120 -30 -178 -81 -40 -34 -59
-66 -30 -49 8 5 8 2 -2 -9 -15 -19 -26 -23 -15 -5 4 7 3 8 -5 4 -6 -4 -18 -21
-27 -38 -12 -23 -13 -33 -4 -42 8 -8 9 -6 4 9 -4 11 -3 17 1 12 5 -4 17 1 28
10 16 15 15 11 -4 -18 -20 -30 -27 -35 -39 -25 -13 9 -13 9 -2 -6 10 -12 11
-29 4 -67 -13 -74 -1 -139 46 -235 3 -5 -1 -5 -8 -1 -8 5 -11 4 -7 -2 4 -6 -1
-17 -10 -24 -14 -12 -16 -12 -8 1 7 13 6 13 -7 2 -9 -7 -30 -17 -46 -21 -25
-8 -31 -6 -39 12 -7 15 -9 2 -6 -44 7 -117 46 -299 65 -299 5 0 6 -4 3 -10 -3
-5 -1 -18 4 -27 9 -16 11 -15 12 7 1 14 1 30 0 36 -1 7 5 14 14 18 8 3 15 14
15 24 0 10 9 27 20 37 19 18 20 17 21 -6 0 -22 1 -23 9 -4 5 11 9 16 9 11 1
-5 7 -3 15 3 11 9 15 8 20 -5 4 -9 9 -15 12 -12 3 3 25 -14 49 -38 24 -24 51
-44 59 -44 9 0 16 -5 16 -11 0 -5 4 -8 9 -5 11 7 1 56 -11 56 -6 0 -5 7 2 16
8 8 9 14 3 12 -6 -2 -27 15 -47 36 -43 47 -48 61 -8 23 16 -15 31 -24 35 -20
4 3 7 -1 7 -10 0 -9 4 -17 10 -17 14 0 42 -60 36 -76 -3 -8 -2 -13 3 -10 5 3
12 -1 15 -10 9 -24 7 -62 -4 -69 -5 -3 -10 -17 -10 -30 0 -13 -5 -27 -12 -31
-8 -5 -9 -2 -5 9 4 11 1 17 -8 17 -9 0 -15 -9 -15 -21 0 -22 -44 -82 -64 -85
-6 -1 -15 -3 -21 -4 -22 -5 -36 1 -29 12 4 7 3 8 -4 4 -17 -10 -60 16 -82 50
-32 48 -23 12 10 -39 113 -178 318 -55 271 163 -6 29 -9 55 -7 58 3 2 8 -13
12 -35 5 -35 12 -43 48 -60 22 -10 40 -24 39 -31 -4 -19 15 -14 20 6 3 9 5 3
6 -15 0 -18 7 -38 14 -44 7 -7 11 -25 9 -41 -2 -15 1 -35 8 -43 7 -9 10 -18 7
-21 -3 -3 -13 7 -22 23 -15 26 -15 26 -9 3 3 -14 22 -46 42 -72 54 -71 121
-96 169 -63 l22 16 -15 -38 c-17 -41 -87 -119 -113 -126 -9 -3 4 -3 29 -1 25
2 73 18 107 34 246 121 329 524 188 918 -19 52 -39 100 -45 106 -8 8 -9 6 -4
-7 6 -17 5 -18 -14 -6 -11 7 -18 18 -15 26 3 7 10 10 16 6 6 -3 7 -1 3 5 -4 6
-13 9 -20 6 -15 -6 -36 17 -40 41 -1 9 -7 20 -13 23 -5 4 -23 29 -38 56 -26
44 -27 49 -10 42 17 -6 18 -5 7 6 -7 7 -18 13 -25 13 -7 1 -11 6 -10 12 4 21
-99 103 -174 139 -71 34 -182 56 -168 33 4 -5 -3 -9 -15 -9 -12 0 -18 5 -15
10 3 6 1 10 -4 10 -6 0 -11 -4 -11 -10z m5 -30 c-5 -8 -72 -6 -81 3 -3 2 16 5
41 5 25 1 43 -3 40 -8z m-168 -116 c-3 -3 -12 -4 -19 -1 -8 3 -5 6 6 6 11 1
17 -2 13 -5z m-37 -8 c0 -2 -8 -10 -17 -17 -16 -13 -17 -12 -4 4 13 16 21 21
21 13z m139 -22 c17 -14 40 -40 52 -57 18 -28 17 -27 -12 6 -19 21 -47 47 -64
57 -16 11 -25 20 -18 20 6 0 25 -12 42 -26z m-126 -21 c-7 -2 -21 -2 -30 0
-10 3 -4 5 12 5 17 0 24 -2 18 -5z m192 -124 c13 -37 15 -63 9 -97 -4 -26 -8
-54 -8 -62 -1 -8 -5 -21 -10 -29 -7 -10 -6 -12 4 -6 9 5 11 4 6 -3 -4 -7 -13
-12 -19 -12 -7 0 -18 -10 -26 -22 l-14 -23 24 20 c24 19 24 19 6 0 -10 -11
-25 -20 -35 -20 -9 0 -16 -6 -14 -12 1 -7 -7 -13 -19 -13 -11 0 -17 5 -14 10
3 6 -5 10 -19 10 -14 0 -28 5 -31 10 -4 6 -11 8 -16 5 -5 -4 -9 -1 -9 5 0 6
-4 9 -9 6 -5 -3 -12 1 -15 10 -3 9 -13 14 -21 10 -19 -7 -41 30 -22 37 7 3 5
6 -5 6 -10 1 -19 7 -20 14 -3 25 -4 32 -12 56 -14 40 -9 104 9 113 8 5 13 14
9 20 -4 6 2 6 15 -1 15 -8 21 -9 21 -1 0 6 5 8 10 5 6 -3 10 -1 10 5 0 6 4 9
8 6 4 -2 14 -1 22 4 15 9 41 -7 98 -59 18 -17 36 -31 39 -31 4 0 3 3 0 7 -4 3
-2 12 4 20 9 10 8 13 0 13 -7 0 -9 5 -6 10 4 6 1 18 -7 27 -11 14 -11 16 4 10
13 -4 15 -2 11 11 -6 15 -4 15 10 4 9 -8 23 -36 32 -63z m54 -71 c1 -15 6 -30
13 -34 8 -5 9 -2 5 9 -7 19 -6 20 17 11 9 -3 16 -14 16 -23 1 -11 5 -8 15 9
13 23 14 22 10 -30 -2 -30 -2 -47 1 -37 5 17 7 17 30 2 18 -11 24 -12 25 -3 0
10 2 11 6 0 3 -8 13 0 27 20 15 22 19 35 12 40 -17 12 29 9 60 -2 20 -8 29 -8
35 1 4 6 12 8 18 5 6 -4 11 -1 11 6 1 7 8 1 16 -15 8 -15 12 -33 8 -39 -4 -6
-3 -8 3 -5 6 4 13 -2 16 -13 3 -11 1 -18 -3 -15 -13 8 -8 -39 5 -47 7 -5 6 -8
-1 -8 -6 0 -9 -10 -7 -24 7 -33 -16 -82 -44 -97 -13 -7 -23 -16 -23 -21 0 -16
-47 -8 -70 12 -12 11 -26 17 -31 15 -4 -3 -11 0 -15 6 -4 7 -3 9 4 5 6 -3 13
-2 17 3 3 6 -3 8 -14 6 -14 -2 -25 9 -45 46 -15 27 -29 49 -32 49 -5 0 13 -38
47 -101 10 -21 16 -44 13 -53 -5 -13 -2 -15 12 -10 11 4 16 4 12 0 -12 -13
-68 -18 -68 -6 0 7 7 9 16 6 8 -3 12 -2 9 4 -3 6 -1 10 4 10 6 0 11 5 11 11 0
5 -4 8 -9 4 -5 -3 -11 0 -14 7 -2 7 -3 5 -2 -4 2 -9 -4 -19 -12 -22 -10 -4
-13 -14 -10 -27 3 -12 3 -27 0 -35 -7 -18 -32 -18 -39 0 -3 8 -15 16 -26 19
-11 3 -17 10 -13 16 3 6 -1 14 -9 17 -9 3 -13 10 -10 15 3 5 -5 13 -18 18 -21
9 -21 10 -3 11 18 1 19 1 3 11 -10 5 -18 17 -18 26 0 10 -6 13 -16 9 -12 -5
-15 -2 -10 10 5 13 4 14 -7 6 -28 -24 -25 2 3 32 33 33 60 108 60 168 0 21 -9
61 -20 90 -26 70 -24 75 5 13 13 -27 24 -62 24 -77z m194 103 c-23 -4 -51 -14
-61 -22 -10 -8 -7 -4 6 9 16 15 34 22 60 21 l37 -2 -42 -6z m124 -51 c15 -24
15 -24 -13 3 -16 15 -38 34 -49 43 -13 10 -9 9 13 -3 18 -10 40 -29 49 -43z
m-224 -35 c-3 -9 -8 -14 -10 -11 -3 3 -2 9 2 15 9 16 15 13 8 -4z m260 -62 c8
-16 17 -46 20 -68 6 -45 -3 -29 -26 48 -16 53 -14 60 6 20z m-635 -136 l22
-24 -21 2 c-14 1 -23 9 -26 23 -4 28 -2 27 25 -1z m708 -131 c8 -50 13 -138
12 -196 l-1 -105 -8 130 c-3 72 -7 137 -8 147 -1 22 -67 19 -101 -5 -13 -9
-34 -17 -45 -16 -13 1 -9 4 12 10 17 5 44 24 59 42 15 17 30 31 34 30 3 -1 6
6 6 15 0 9 1 31 3 47 3 52 22 3 37 -99z m-849 72 c-3 -8 -6 -5 -6 6 -1 11 2
17 5 13 3 -3 4 -12 1 -19z m662 -114 c14 -12 -19 -1 -35 12 -18 14 -18 14 6 3
14 -6 27 -13 29 -15z m-404 0 c18 -8 43 -27 56 -42 l24 -27 -25 21 c-42 36
-72 47 -120 45 -45 -1 -75 -23 -66 -47 2 -6 -2 -11 -9 -11 -10 0 -11 5 -4 19
5 10 6 18 2 18 -13 0 31 27 52 33 37 9 57 7 90 -9z m305 -25 c0 -14 -17 -10
-23 5 -4 10 -1 13 9 9 7 -3 14 -9 14 -14z m-117 -6 c-7 -2 -19 -2 -25 0 -7 3
-2 5 12 5 14 0 19 -2 13 -5z m202 -53 c3 -5 1 -10 -4 -10 -6 0 -11 5 -11 10 0
6 2 10 4 10 3 0 8 -4 11 -10z m-264 -55 l10 -20 -16 20 c-9 11 -21 29 -26 40
l-10 20 16 -20 c9 -11 21 -29 26 -40z m309 22 c21 -11 27 -11 38 2 8 9 11 10
7 3 -8 -15 12 -42 28 -38 7 1 9 1 4 -1 -4 -3 -4 -10 -1 -15 4 -7 2 -8 -4 -4
-13 8 -16 -5 -4 -20 4 -5 -5 2 -19 16 -44 45 -72 60 -112 60 -53 0 -111 -56
-122 -117 -5 -33 -9 -40 -19 -31 -20 19 47 131 89 148 30 13 87 11 115 -3z
m-266 -63 c3 -8 2 -12 -4 -9 -6 3 -10 10 -10 16 0 14 7 11 14 -7z m150 -20 c3
-8 2 -12 -4 -9 -6 4 -14 -4 -18 -16 -5 -12 -12 -18 -15 -12 -5 8 18 53 27 53
2 0 7 -7 10 -16z m158 -18 c3 3 9 0 14 -7 4 -8 3 -10 -4 -5 -17 10 -15 2 8
-37 13 -21 19 -45 16 -61 -3 -14 0 -26 5 -26 5 0 9 -7 9 -16 0 -9 -5 -12 -12
-8 -8 5 -9 2 -5 -10 7 -16 -19 -95 -32 -97 -32 -4 -56 -11 -61 -20 -4 -6 -12
-4 -20 6 -7 8 -18 15 -25 15 -17 0 -27 28 -19 53 3 11 2 17 -3 14 -5 -3 -8 13
-7 36 1 23 -3 48 -8 54 -6 7 -8 23 -5 35 4 14 0 27 -11 35 -9 8 -12 12 -5 9 6
-4 16 2 22 11 7 12 10 13 11 4 0 -10 3 -11 14 -2 11 9 16 9 21 1 4 -7 17 -9
28 -6 13 3 25 -1 33 -12 12 -16 13 -16 19 1 5 11 0 26 -11 40 -19 22 -19 22 2
4 11 -9 23 -14 26 -11z m-265 -4 c-9 -2 -15 -8 -12 -13 7 -11 3 -11 -19 -3
-23 9 3 32 29 25 17 -4 18 -6 2 -9z m348 -67 c23 -54 26 -70 18 -97 -9 -33 -9
-33 -9 12 -1 28 -11 69 -27 103 -14 32 -22 55 -18 52 5 -2 21 -34 36 -70z
m-16 -40 c-1 -29 -1 -29 -9 -5 -4 14 -8 34 -9 45 -1 16 1 17 9 5 5 -8 9 -28 9
-45z m48 18 c-3 -10 -5 -4 -5 12 0 17 2 24 5 18 2 -7 2 -21 0 -30z m-470 -15
c-3 -8 -6 -5 -6 6 -1 11 2 17 5 13 3 -3 4 -12 1 -19z"/>
<path d="M4080 3852 c0 -6 -8 -9 -17 -6 -15 5 -16 4 -3 -5 16 -11 40 3 27 16
-4 3 -7 1 -7 -5z"/>
<path d="M4075 3792 c-10 -7 -19 -52 -10 -52 7 0 27 51 22 56 -1 2 -7 0 -12
-4z"/>
<path d="M4232 3730 c0 -14 2 -19 5 -12 2 6 2 18 0 25 -3 6 -5 1 -5 -13z"/>
<path d="M4280 3686 c0 -11 30 -66 36 -66 2 0 -3 15 -12 33 -19 36 -24 44 -24
33z"/>
<path d="M4215 3520 c-3 -5 1 -10 10 -10 9 0 13 5 10 10 -3 6 -8 10 -10 10 -2
0 -7 -4 -10 -10z"/>
<path d="M4220 3490 c0 -5 5 -10 10 -10 6 0 10 5 10 10 0 6 -4 10 -10 10 -5 0
-10 -4 -10 -10z"/>
<path d="M4556 3603 c5 -26 3 -31 -11 -30 -10 1 -20 -4 -22 -10 -3 -7 0 -13 7
-13 6 0 8 5 5 11 -4 6 0 9 11 7 22 -4 33 37 15 55 -8 8 -10 3 -5 -20z"/>
<path d="M4460 3376 c0 -2 8 -10 18 -17 15 -13 16 -12 3 4 -13 16 -21 21 -21
13z"/>
<path d="M4739 3813 c-13 -16 -12 -17 4 -4 16 13 21 21 13 21 -2 0 -10 -8 -17
-17z"/>
<path d="M4777 3763 c-11 -11 -8 -49 14 -172 31 -174 29 -167 40 -150 5 7 9 9
9 3 0 -6 6 -11 14 -11 9 0 12 7 9 16 -5 13 -3 14 7 4 10 -9 17 -9 26 -2 14 11
85 2 81 -11 -1 -4 10 -19 26 -33 15 -14 27 -33 27 -41 0 -8 5 -18 10 -21 6 -3
10 -15 10 -26 0 -11 4 -18 9 -15 5 3 12 -31 15 -77 4 -45 9 -113 12 -152 4
-50 2 -66 -5 -55 -10 14 -16 7 -12 -14 1 -4 -6 -14 -16 -22 -10 -7 -14 -14 -9
-14 6 0 1 -7 -10 -15 -23 -18 -53 -19 -91 -3 -15 6 -31 11 -35 10 -3 -1 -12 5
-18 13 -7 8 -22 16 -34 16 -18 1 -18 2 -3 6 16 4 15 7 -8 19 -15 8 -31 11 -36
8 -5 -3 -9 12 -9 33 0 21 -5 45 -10 53 -13 20 -14 -269 -1 -303 9 -22 18 -25
118 -36 59 -7 160 -19 223 -27 118 -15 310 -35 509 -55 95 -9 115 -9 127 3 12
12 13 60 4 313 -6 165 -15 311 -21 326 -10 26 0 21 -424 214 -168 77 -521 225
-535 225 -4 0 -10 -3 -13 -7z m490 -449 c7 -6 9 -15 5 -19 -4 -5 -1 -5 6 -1
18 10 37 -16 58 -79 9 -27 20 -54 24 -60 10 -14 1 -136 -11 -151 -7 -8 -7 -14
1 -19 16 -10 12 -22 -12 -28 -18 -5 -19 -8 -9 -21 21 -26 -14 -32 -61 -11 -10
4 -25 5 -33 1 -8 -3 -15 -2 -15 3 0 5 -9 11 -21 14 -12 3 -18 10 -15 15 7 11
-42 35 -55 27 -5 -4 -9 6 -9 22 -1 15 -3 53 -5 83 -9 113 -12 194 -8 175 3
-11 10 -24 15 -30 8 -7 9 -6 4 2 -10 18 11 61 35 68 17 6 19 9 8 17 -11 7 -9
9 7 5 12 -2 28 -1 34 3 15 9 39 2 57 -16z m-384 -521 c-7 -2 -21 -2 -30 0 -10
3 -4 5 12 5 17 0 24 -2 18 -5z m44 -9 c-3 -3 -12 -4 -19 -1 -8 3 -5 6 6 6 11
1 17 -2 13 -5z"/>
<path d="M502 3650 c0 -14 2 -19 5 -12 2 6 2 18 0 25 -3 6 -5 1 -5 -13z"/>
<path d="M4075 3271 c-3 -5 -1 -12 5 -16 5 -3 10 1 10 9 0 18 -6 21 -15 7z"/>
<path d="M3940 950 c0 -5 5 -10 11 -10 5 0 7 5 4 10 -3 6 -8 10 -11 10 -2 0
-4 -4 -4 -10z"/>
<path d="M3978 923 c7 -3 16 -2 19 1 4 3 -2 6 -13 5 -11 0 -14 -3 -6 -6z"/>
<path d="M4628 923 c7 -3 16 -2 19 1 4 3 -2 6 -13 5 -11 0 -14 -3 -6 -6z"/>
</g>
</svg>
